<svg width="169" height="26" viewBox="0 0 169 26" xmlns="http://www.w3.org/2000/svg"><g fill="white" fill-rule="evenodd"><path d="M14.788 22.586h.434c5.65 0 10.905-2.688 10.905-9.369 0-2.372-.671-4.783-2.449-6.76-1.541-1.581-4.109-2.886-8.02-3.004-.12 0-.277.04-.435.04-5.69-.08-10.944 2.569-10.944 9.29 0 2.372.671 4.783 2.449 6.76 1.541 1.58 4.149 2.885 8.06 3.043zM15.144.448c9.759 0 14.54 5.575 14.54 12.65 0 5.614-2.806 8.223-4.426 9.449-1.027.79-3.832 3.005-9.917 3.005h-.197C5.504 25.512.723 19.938.723 12.862c0-5.614 2.805-8.184 4.425-9.41C6.175 2.663 8.98.449 15.065.449h.078zm-1.778 14.43h3.714v-3.796h-3.714v3.796zM55.209 17.424l.448 2.816c-1.356.649-3.029 1.203-5.48 1.203-5.126 0-8.991-3.277-8.991-8.239 0-5.174 4.1-8.238 9.203-8.238 1.933 0 3.771.471 5.02 1.049l-.247 2.852c-1.026-.495-2.664-.955-4.49-.955-3.417 0-6.175 1.839-6.175 5.269 0 3.253 2.545 5.386 6.116 5.386 1.803 0 3.44-.448 4.596-1.143zm15.778 1.037v2.746H58.955V5.2H70.81V7.96h-8.673v3.69h7.589v2.757h-7.59v4.055h8.85zm15.341 0v2.746H74.533V5.2h3.181v13.26h8.614zm14.8 0v2.746H89.332V5.2h3.182v13.26h8.614zm2.25-2.935V5.201h3.17v10.113c0 2.286 1.65 3.276 3.806 3.276 2.298 0 3.83-1.084 3.83-3.276V5.2h3.17v10.325c0 4.172-3.335 5.917-7 5.917-3.96 0-6.976-1.886-6.976-5.917zm30.025 2.935v2.746h-11.796V5.2h3.182v13.26h8.614zm14.635 2.746l-1.179-3.135h-7.424l-1.19 3.135h-3.394L141.31 5.2h3.653l6.47 16.006h-3.394zm-4.89-12.682l-2.817 7.013h5.609l-2.793-7.013zm21.646 12.67l-3.665-4.703h-3.7v4.715h-3.182V5.2h7.424c3.229 0 5.845 2.051 5.845 5.658 0 2.322-1.297 4.148-3.123 5.032l4.242 5.304h-3.841zM161.305 7.96h-3.877v5.787h3.877c1.697 0 2.935-1.167 2.935-2.876 0-1.862-1.261-2.91-2.935-2.91z" fill-rule="nonzero"/></g></svg>