<svg width="125" height="28" viewBox="0 0 125 28" xmlns="http://www.w3.org/2000/svg"><g fill="white" fill-rule="nonzero"><path d="M2.72 16.93V8.446c0-.899 0-1.797.389-2.696A4.88 4.88 0 015.44 3.235a4.362 4.362 0 011.908-.431c.742 0 1.519.18 2.19.539.46.251.883.575 1.236.97L13 2.623c-.177-.215-.389-.43-.6-.646A7.135 7.135 0 008.16.036C7.913 0 7.63 0 7.383 0a7.42 7.42 0 00-3.32.79 7.69 7.69 0 00-3.25 3.236A6.632 6.632 0 00.14 6.074C.071 6.542 0 7.01 0 7.512V28h2.755v-8.339H9.22V16.93h-6.5zM13 11v17h3l-.038-17z"/><path d="M13.252 5.152C12.509 5.467 12 6.216 12 7.004c0 .827.509 1.536 1.252 1.851.86.355 1.917.04 2.425-.748.43-.67.43-1.576 0-2.246-.508-.787-1.565-1.063-2.425-.709zM40 28h2.962L43 1h-3zM66.532 12.546c-.288-.669-.72-1.267-1.225-1.795a6.262 6.262 0 00-3.674-1.725c-1.189-.106-2.485.106-3.53.704-.648.387-1.153.88-1.657 1.408-.216-.211-.396-.422-.612-.633-.397-.352-.829-.67-1.297-.88a6.375 6.375 0 00-3.962-.423 6.178 6.178 0 00-2.846 1.514 5.494 5.494 0 00-1.549 2.816 8.977 8.977 0 00-.18 1.69V28h2.774V15.186c0-.457 0-.95.108-1.408a2.81 2.81 0 011.224-1.69c.685-.422 1.513-.563 2.306-.457.9.106 1.693.598 2.197 1.338.396.563.54 1.197.54 1.865v13.13h2.81V15.152c0-.493.036-.985.18-1.478a3.019 3.019 0 011.585-1.725c.756-.317 1.62-.352 2.377-.07.793.281 1.441.844 1.801 1.548.288.564.324 1.162.324 1.796V27.93H67V15.68c0-.529 0-1.022-.072-1.55-.036-.528-.18-1.056-.396-1.584zM87.831 13.796a9.892 9.892 0 00-2.87-3.067c-1.523-1.057-3.294-1.692-5.172-1.727-1.7-.035-3.4.353-4.853 1.163-1.594.846-2.905 2.186-3.755 3.772-.673 1.233-1.098 2.643-1.17 4.053a9.66 9.66 0 00.71 4.124 9.582 9.582 0 003.01 3.912c1.56 1.199 3.543 1.833 5.527 1.904 1.771.07 3.507-.423 5.03-1.27.744-.422 1.382-.951 1.984-1.55V28H89v-8.706c0-.74-.035-1.515-.07-2.256-.107-1.163-.497-2.255-1.099-3.242zm-3.047 8.917c-1.275 1.55-3.259 2.467-5.278 2.467-2.02 0-4.003-.951-5.278-2.502-.957-1.163-1.595-2.785-1.56-4.3a7.132 7.132 0 011.56-4.336c.991-1.198 2.408-2.009 3.932-2.326 1.523-.317 3.153-.07 4.57.67a6.747 6.747 0 013.471 4.688 6.883 6.883 0 01-1.417 5.639zM105.098 11.444a7.495 7.495 0 00-3.445-2.153 8.105 8.105 0 00-4.306 0c-1.256.389-2.44 1.095-3.337 2.048-.862.917-1.543 2.082-1.83 3.318A9.059 9.059 0 0092 16.35V28h2.727V16.245c0-.565.144-1.13.36-1.659.466-1.059 1.327-2.012 2.403-2.506a4.828 4.828 0 014.235.141 4.786 4.786 0 012.081 2.118c.36.706.467 1.483.467 2.26V28H107V16.951c0-.847-.072-1.73-.287-2.541-.251-1.095-.825-2.118-1.615-2.966zM124.634 14.078a7.388 7.388 0 00-2.04-3.136 7.337 7.337 0 00-4.329-1.904 7.662 7.662 0 00-4.15.74c-1.396.705-2.576 1.833-3.292 3.173-.322.634-.573 1.304-.68 2.009-.071.458-.143.916-.143 1.41V28h2.72V17.286c0-.917 0-1.798.393-2.679.465-1.057 1.324-2.009 2.397-2.502a4.808 4.808 0 014.222.14 4.775 4.775 0 012.075 2.115c.358.705.465 1.48.465 2.256V28h2.72V16.968c.035-.986-.036-1.973-.358-2.89zM35.415 13.186c-.92-1.339-2.193-2.502-3.68-3.206a9.515 9.515 0 00-5.305-.916 9.71 9.71 0 00-4.847 2.008c-1.415 1.127-2.511 2.713-3.113 4.404-.6 1.797-.6 3.735-.141 5.567.318 1.339.99 2.502 1.875 3.523.99 1.163 2.228 2.114 3.643 2.713 1.628.67 3.432.881 5.165.6 1.521-.212 2.972-.881 4.174-1.798.99-.74 1.769-1.69 2.476-2.642l-2.37-1.41c-.283.494-.601.952-1.025 1.34-1.026.95-2.264 1.655-3.644 1.867a6.798 6.798 0 01-3.75-.423c-1.45-.599-2.724-1.762-3.466-3.136-.319-.599-.496-1.233-.602-1.902h16.096c.106-.775.141-1.586.035-2.361-.106-1.515-.637-2.96-1.521-4.228zM20.77 17.132c.247-.845.53-1.656.99-2.396a6.975 6.975 0 013.396-2.713c1.486-.528 3.149-.563 4.634-.035a7.11 7.11 0 013.22 2.36c.671.882.99 1.692 1.237 2.749l-13.477.035z"/></g></svg>