<?xml version="1.0" encoding="utf-8"?>
<!-- Generator: Adobe Illustrator 23.1.1, SVG Export Plug-In . SVG Version: 6.00 Build 0)  -->
<svg version="1.1" id="Layer_1" xmlns="http://www.w3.org/2000/svg" xmlns:xlink="http://www.w3.org/1999/xlink" x="0px" y="0px"
	 viewBox="0 0 110 23.9" style="enable-background:new 0 0 110 23.9;" xml:space="preserve">
<style type="text/css">
	.st0{fill:#FFFFFF;}
	.st1{fill:#CECECE;}
</style>
<path class="st0" d="M62.2,11.6V1.1V0.8c0-0.2,0.1-0.2,0.3-0.3h8.9c2,0,3.8,0.3,5.6,1.2c3.5,1.8,5.7,4.5,6.4,8.5
	c0.6,3.6-0.4,6.9-3,9.7c-2.3,2.4-5,3.6-8.3,3.6c-2.8,0.1-5.6,0-8.4,0h-0.4c-0.6,0-1.1-0.4-1.2-1.1V22L62.2,11.6L62.2,11.6z M68.5,12
	v5.1c0,0.2,0.1,0.2,0.2,0.2h3c2.9,0,5.2-2.3,5.3-5c0.2-3.1-2.3-5.5-5.2-5.6h-3.1c-0.2,0-0.3,0-0.3,0.3C68.5,8.6,68.5,10.3,68.5,12z
	 M98.2,23.7c-6.5,0-11.8-5.2-11.8-11.8c0-6.5,5.3-11.7,11.8-11.7c6.6,0,11.9,5.4,11.8,12C109.9,18.7,104.6,23.8,98.2,23.7z M92.8,12
	c0,3,2.5,5.4,5.4,5.4c3,0,5.4-2.5,5.5-5.4c0-3-2.5-5.4-5.4-5.4C95.2,6.6,92.8,8.9,92.8,12z M40.5,13.5v9.5c0,0.3-0.1,0.4-0.4,0.4
	h-5.7c-0.3,0-0.4-0.1-0.4-0.4V1.4c0-0.4,0.2-0.8,0.5-0.9c0.4-0.2,0.8-0.1,1.1,0.2c3.2,2.5,6.4,4.9,9.6,7.5c0.3,0.2,0.3,0.2,0.6,0
	c3.3-2.5,6.5-4.9,9.8-7.5c0.3-0.3,0.7-0.3,1-0.1c0.4,0.1,0.6,0.5,0.6,0.9v21.8c0,0.2-0.1,0.3-0.3,0.3h-5.7c-0.3,0-0.4-0.1-0.4-0.4
	v-9.6c0-0.1-0.1-0.2-0.2-0.3l-4.5-4.5l-0.1-0.1c-0.1-0.1-0.2-0.1-0.3,0l-1,1c-1.3,1.2-2.5,2.5-3.7,3.7
	C40.6,13.4,40.5,13.4,40.5,13.5z M17.5,6.8v5.5c-0.1,3.1-1.2,5.6-3.3,7.8c-1.8,2-4,3.2-6.7,3.5c-2.6,0.4-5.1,0-7.4-1.3
	c-0.3-0.1-0.3-0.3-0.1-0.5c1-1.7,1.9-3.4,2.9-4.9c0.1-0.2,0.3-0.3,0.5-0.1c3.2,1.5,6.7-0.3,7.5-3.6c0.1-0.4,0.1-0.7,0.1-1.1V1
	c0-0.4,0.1-0.5,0.5-0.5h5.6c0.4,0,0.4,0.1,0.4,0.4C17.5,0.9,17.5,6.8,17.5,6.8z M22.4,12V1c0-0.4,0.1-0.5,0.5-0.5h5.6
	c0.4,0,0.4,0.1,0.4,0.4V23c0,0.3-0.1,0.4-0.4,0.4h-5.7c-0.3,0-0.4-0.1-0.4-0.4C22.4,23,22.4,12,22.4,12z"/>
<path class="st1" d="M40.5,13.5c0-0.1,0.1-0.2,0.1-0.2l3.7-3.7c0.3-0.3,0.7-0.6,1-1c0.1-0.1,0.2-0.1,0.3,0l0.1,0.1l4.5,4.5
	c0.1,0.1,0.2,0.1,0.2,0.3c-0.1-0.1-0.2,0.1-0.2,0.1L45.8,18c-0.3,0.3-0.4,0.3-0.7,0C43.7,16.5,42.2,15.1,40.5,13.5
	C40.6,13.6,40.5,13.5,40.5,13.5z"/>
</svg>
