<?xml version="1.0" encoding="utf-8"?>
<!-- Generator: Adobe Illustrator 22.0.1, SVG Export Plug-In . SVG Version: 6.00 Build 0)  -->
<svg version="1.1" id="Layer_1" xmlns="http://www.w3.org/2000/svg" xmlns:xlink="http://www.w3.org/1999/xlink" x="0px" y="0px"
	 viewBox="0 0 128 128" style="enable-background:new 0 0 128 128;" xml:space="preserve">
<path d="M123,47.4c-0.7-2.6-1.6-5.1-2.9-7.2c-1.3-2.2-2.9-4.2-4.8-6c-1.9-1.8-4-3.5-6.4-5.2c-3.2-2.3-7.2-4.1-11.9-5.4
	c-4.7-1.3-10.1-1.9-16.1-1.9c-3.5,0-6.5,0.1-8.8,0.2c-2.3,0.1-4.3,0.4-5.8,0.7c-1.6,0.4-2.9,0.9-4.1,1.5c-1.1,0.6-2.3,1.5-3.4,2.5
	L44.7,39.8c-0.2,0.2-0.3,0.6-0.3,1.1c0,0.4,0.1,0.8,0.3,1.2c0.2,0.4,0.5,0.6,0.9,0.6c0.7,0,1.4-0.1,2.4-0.2c0.9-0.1,1.9-0.3,2.9-0.5
	c1-0.2,2.1-0.4,3.1-0.6c1.1-0.2,2.1-0.5,3.1-0.7l-0.8,11.6c-0.1,1.3-0.2,2.6-0.3,3.9l-19.7,0.2l1.1-8.6c0.3-1.8,0.6-3.5,0.8-5.2
	c0.2-1.7,0.4-3.5,0.5-5.4c0.2-1.9,0.3-3.9,0.5-6.1c0.1-2.2,0.3-4.6,0.6-7.2c0-1-0.1-1.6-0.3-1.9c-0.2-0.3-0.5-0.5-1.1-0.5
	s-1,0.1-1.5,0.2l-18.8,4.6c-0.7,0.2-1.2,0.5-1.3,1.1c-0.1,0.5-0.2,1.4-0.3,2.7c-0.1,1.1-0.2,2.4-0.4,3.9c-0.1,1.5-0.2,3-0.4,4.4
	c-0.1,1.4-0.2,2.6-0.3,3.7c-0.1,1-0.1,1.6-0.1,1.7l-1.3,13.3c-0.2,0.3-0.7,1.1-1.4,2.2c-0.7,1.1-1.5,2.4-2.4,3.8
	c-0.9,1.4-1.8,2.9-2.8,4.3c-1,1.5-1.8,2.7-2.6,3.7C4.3,71.7,4,72.3,4,72.8c0,0.7,0.7,1.1,2,1.3c1.3,0.2,3.5,0.2,6.5,0.2L12.4,76
	c-0.3,2.5-0.5,5.1-0.8,7.7c-0.3,2.6-0.5,5.2-0.7,7.7c-0.2,2.5-0.3,4.9-0.5,7.1c-0.1,2.3-0.2,4.3-0.2,6.1c0,0.8,0.2,1.3,0.6,1.6
	c0.4,0.3,0.8,0.4,1.4,0.4c0.6,0,1.3-0.1,1.9-0.3c0.6-0.2,1.2-0.4,1.6-0.6c0.9-0.3,2.2-0.8,3.8-1.4c1.7-0.6,3.4-1.2,5.1-1.8
	c1.7-0.6,3.2-1.1,4.5-1.6c1.3-0.5,2-0.7,2.2-0.8c0.4-0.2,0.7-0.4,0.7-0.7c0.1-0.3,0.2-0.6,0.2-1l2.3-24.2h19.9c0,0.1,0,0.2,0,0.3
	c-0.1,1.8-0.3,3.6-0.4,5.5c-0.1,1.8-0.2,3.5-0.4,5c-0.1,1.5-0.2,2.7-0.3,3.7c-0.1,1-0.2,1.6-0.2,1.7l-6.8,13
	c-0.1,0.3-0.2,0.6-0.2,0.9c0,0.4,0.1,0.8,0.3,1.1c0.2,0.3,0.5,0.5,0.9,0.6h10.1c5.1,0,10.2-0.4,15.5-1.1c5.3-0.7,10.3-1.8,15.3-3.4
	c4.9-1.6,9.6-3.7,13.9-6.2c4.3-2.5,8.1-5.7,11.4-9.3c3.2-3.7,5.8-8,7.7-12.9c1.9-4.9,2.8-10.5,2.8-16.8C124,53,123.6,50,123,47.4z
	 M98.2,72.1c-0.9,3.4-2.3,6.4-4.2,8.9c-1.9,2.5-4.4,4.5-7.5,5.9c-3.1,1.4-6.9,2.2-11.3,2.2l0.2-1.7c0.1-1.1,0.2-2.5,0.4-4.3
	c0.1-1.8,0.3-3.9,0.5-6.1c0.2-2.3,0.4-4.7,0.6-7.4c0.2-2.6,0.4-5.3,0.7-8c0.2-2.7,0.5-5.4,0.7-8c0.2-2.6,0.5-5.1,0.7-7.4l0.7-6.7
	c0.3-0.2,0.8-0.4,1.3-0.6c0.5-0.2,1-0.3,1.4-0.3c2.7,0,5.1,0.6,7.2,1.8c2.1,1.2,3.9,3,5.4,5.3c1.5,2.4,2.6,4.8,3.4,7.4
	c0.8,2.6,1.2,5.3,1.2,8.1C99.5,65,99,68.7,98.2,72.1z"/>
</svg>
