<?xml version="1.0" encoding="UTF-8"?>
<svg width="280px" height="31px" viewBox="0 0 280 31" version="1.1" xmlns="http://www.w3.org/2000/svg" xmlns:xlink="http://www.w3.org/1999/xlink">
    <!-- Generator: Sketch 60.1 (88133) - https://sketch.com -->
    <title>Logo</title>
    <desc>Created with Sketch.</desc>
    <g id="Logo" stroke="none" stroke-width="1" fill="none" fill-rule="evenodd">
        <g id="Stripes" transform="translate(4.000000, 11.000000)">
            <rect id="firsttripe" fill="#FFCF7F" x="8" y="0" width="24" height="4" rx="2"></rect>
            <rect id="seondstripe" fill="#39D3D6" x="0" y="8" width="28" height="4" rx="2"></rect>
            <rect id="thirdstripe" fill="#FF9372" x="12" y="16" width="20" height="4" rx="2"></rect>
        </g>
        <g id="Word" transform="translate(44.000000, 1.000000)" fill="#FFFFFF" fill-rule="nonzero">
            <path d="M7.73933598,13.6110894 C6.44998388,13.6110894 5.01557967,14.1202655 5.01557967,15.5103475 C5.01557967,19.1214369 15,17.361187 15,24.1210465 C15,27.7321359 12.0860643,30 7.49919415,30 C5.40399699,30 2.96067476,29.6298321 0,27.7774307 C0.76394112,26.7590785 2.19673364,24.7692308 2.19673364,24.7692308 C3.77296658,25.787583 5.77952079,26.4357673 7.35414204,26.4357673 C9.50413667,26.4357673 10.5549586,25.5095666 10.5549586,24.213198 C10.5549586,20.2787973 0.810680133,22.3607966 0.810680133,15.4666146 C0.810680133,12.0413901 3.67626518,10 7.74094767,10 C9.93271763,10.0026358 12.0692804,10.6664328 13.8540883,11.8992581 L13.1384979,15.5103475 C11.0352423,14.0749707 9.26721822,13.6110894 7.73933598,13.6110894 Z" id="Path"></path>
            <path d="M19,20.0179114 C19,13.7395841 23.1929479,10 28.9209773,10 C32.4825488,10 35.006533,11.8004828 35.3686236,12.032552 L34.5120816,15.7285258 C34.5120816,15.7285258 32.1219796,13.7037614 28.9650975,13.7037614 C25.6286916,13.7037614 23.013424,15.9185422 23.013424,19.9820886 C23.013424,24.0456351 25.5389297,26.3990343 28.9209773,26.3990343 C31.8511724,26.3990343 33.8807052,24.6437193 34.1515124,24.4132077 L36,27.7836617 C33.520136,29.3988007 31.219796,30 28.9209773,30 C23.1929479,29.9906549 19,26.2043455 19,20.0179114 Z" id="Path"></path>
            <path d="M53.8994067,18.9035078 C53.8994067,14.8002038 52.8275923,12.955428 49.8831134,12.955428 C46.8934738,12.955428 45.019304,15.7225917 45.019304,19.2254881 L45.019304,29 L41,29 L41,0.830615748 L45.0147879,0 L45.0147879,12.5416756 C46.1302577,10.6051277 48.4063579,9.45253165 50.7261135,9.45253165 C55.9030373,9.45253165 58,12.8169921 58,18.856844 L58,29 L53.8994067,29 L53.8994067,18.9035078 Z" id="Path"></path>
            <path d="M68.1685413,20.2824859 C68.1685413,24.480783 68.8936381,26.4144187 72.1137407,26.4144187 C75.2420588,26.4144187 76.9186538,23.5847855 76.9186538,19.9992043 L76.9186538,10 L81,10 L81,29.7167184 L76.9186538,29.7167184 L76.9186538,26.8393411 C75.7851165,28.8207209 73.9723747,30 71.3427517,30 C65.9886619,30 64,26.5099069 64,20.33023 L64,10 L68.1716008,10 L68.1685413,20.2824859 Z" id="Path"></path>
            <path d="M96.1495482,30 C90.5013678,30 87.466219,27.3040702 87,26.8778931 L87,0.900239425 L91.1550195,0 L91.1550195,13.7685555 C92.1819614,11.4972067 94.1901683,9.69992019 97.3166708,9.69992019 C103.013678,9.69992019 106,14.0526736 106,19.7765363 C106,25.500399 102.545884,30 96.1495482,30 Z M96.6630191,13.4892259 C93.2089033,13.4892259 91.1502943,16.5219473 91.1502943,21.4844374 L91.1502943,24.9864326 C91.6637652,25.3168396 93.0639973,26.3096568 96.0062174,26.3096568 C99.7863715,26.3096568 101.747338,23.1875499 101.747338,19.7334397 C101.752052,16.1340782 100.258891,13.4844374 96.6630191,13.4844374 L96.6630191,13.4892259 Z" id="Shape"></path>
            <path d="M114.49885,21.4829387 L114.49885,30 L110,30 L110,10.3321766 L114.49885,10.3321766 L114.49885,13.2960822 C115.198896,11.2323022 117.449164,10.0019718 119.798957,10.0019718 C120.199971,9.99405918 120.601115,10.009966 121,10.0495975 C120.699739,11.4132798 120.600215,12.4959706 120.249348,13.8596529 L119.900169,13.8596529 C115.149977,13.8612404 114.49885,17.3426785 114.49885,21.4829387 Z" id="Path"></path>
            <path d="M132.895735,10 C138.331024,10 141.349583,12.6567047 142,13.1694849 L142,29.7672041 L137.865545,29.7672041 L137.865545,26.4105387 C136.798235,28.3688557 134.799967,30 131.919327,30 C126.067145,30 123,25.712151 123,20.0699961 C123,14.4750295 126.531057,10 132.895735,10 Z M132.384806,26.2705466 C135.729357,26.2705466 137.870247,23.2819505 137.870247,18.3916634 L137.870247,14.9878097 C137.400066,14.6150216 135.918997,13.682265 133.085375,13.682265 C129.229894,13.682265 127.278633,16.7133307 127.278633,20.2099882 C127.273942,23.6594573 128.76128,26.2705466 132.384806,26.2705466 Z" id="Shape"></path>
            <path d="M148,29 L148,0.830615748 L152.212398,0 L152.212398,29 L148,29 Z M159.465681,9.72940356 L164.846435,9.72940356 L157.359481,17.7975756 L167,28.9968891 L161.617667,28.9968891 L152.632375,17.7975756 L159.465681,9.72940356 Z" id="Shape"></path>
            <path d="M177.208348,26.3875 C179.898957,26.3875 181.382783,25.2296875 182.217043,24.534375 L184.350435,27.684375 C181.846087,29.44375 179.850435,30 177.206783,30 C170.803478,30 167,26.109375 167,20 C167,13.9796875 170.989739,10 176.278609,10 C181.149565,10 185,13.28125 185,18.9390625 C185,19.81875 184.907652,20.884375 184.907652,20.884375 L171.176,20.884375 C171.176,24.534375 173.868174,26.3875 177.208348,26.3875 Z M171.417043,17.5875 L181.158957,17.5875 C180.880348,14.809375 178.839304,13.41875 176.380348,13.41875 C174.099826,13.41875 172.15113,14.809375 171.409217,17.5875 L171.417043,17.5875 Z" id="Shape"></path>
            <path d="M189,19.9183573 C189,14.2408513 192.640643,9.70299656 198.334659,9.70299656 C201.326537,9.70299656 203.846014,11.2161469 203.846014,11.2161469 L203.846014,0.900228665 L208,0 L208,29.7586228 L203.846014,29.7586228 L203.846014,26.3524384 C202.588273,28.627354 200.206507,30.0257223 197.63393,29.9996414 C191.987154,29.9996414 189,25.6437478 189,19.9183573 Z M198.194514,26.2103811 C201.501326,26.2103811 203.84129,23.1776958 203.84129,18.2152651 L203.84129,15.2815412 C202.463129,14.0860354 200.707596,13.4313328 198.893668,13.4363626 C195.300265,13.4363626 193.246892,16.512173 193.246892,20.0604147 C193.246892,23.5607719 194.739682,26.2103811 198.194514,26.2103811 Z" id="Shape"></path>
            <path d="M223.206783,26.3875 C225.897391,26.3875 227.382783,25.2296875 228.215478,24.534375 L230.350435,27.684375 C227.846087,29.44375 225.850435,30 223.205217,30 C216.803478,30 213,26.109375 213,20 C213,13.9796875 216.989739,10 222.278609,10 C227.149565,10 231,13.28125 231,18.9390625 C231,19.81875 230.907652,20.884375 230.907652,20.884375 L217.174435,20.884375 C217.176,24.534375 219.866609,26.3875 223.206783,26.3875 Z M217.415478,17.5875 L227.158957,17.5875 C226.880348,14.809375 224.839304,13.41875 222.380348,13.41875 C220.096696,13.41875 218.15113,14.809375 217.407652,17.5875 L217.415478,17.5875 Z" id="Shape"></path>
        </g>
        <rect id="Rectangle" x="-73" y="0" width="426" height="31"></rect>
    </g>
</svg>
