<svg width="167" height="19" viewBox="0 0 167 19" xmlns="http://www.w3.org/2000/svg"><path d="M66.826 0v19h-3.712V3.8H55.68V19h-3.71V3.8h-7.423V19h-3.711V0h25.99zM0 3.8v7.6h11.133v3.8H0V19h14.844V7.6H3.711V3.8H0zm3.711 0V0h11.133v3.8H3.711zM22.267 0h-3.711v15.2h3.71V0zM37.11 3.8V19H22.267v-3.8H33.4V3.8h3.711zm37.111 11.4h-3.71V19h3.71v-3.8zm7.474 3.8v-3.8h11.133V19H81.696zm0-15.2h11.133V0H78.061v15.2h3.724l-.09-11.4zm37.11 0h3.712V19h-3.724l.013-15.2zm3.7-3.8v3.8h7.421v11.4h3.711V3.8h7.423V19h3.71V0h-22.266zm-11.173 0v15.2H100.2V3.8h-3.686V19h18.569V0h-3.75zm51.969 3.8v11.4h-11.134V3.8h11.134V0h-14.858v19H167V3.8h-3.698z" fill="white" fill-rule="nonzero"/></svg>