<svg width="58" height="22" viewBox="0 0 58 22" xmlns="http://www.w3.org/2000/svg"><path d="M51.424 0c-4.99 0-7.728 3.002-7.728 8.438v5.726c0 5.193 2.398 7.836 7.143 7.836 3.837 0 6.944-1.547 7.161-1.658V10.058c0-.32-.22-.546-.53-.546h-6.357c-.31 0-.53.227-.53.546v2.637c0 .32.22.546.53.546h2.96c.012 0 .018.006.018.02v4.444c0 .01-.01.016-.019.02a9.38 9.38 0 01-3.105.546c-2.261 0-3.361-1.447-3.361-4.408V8.438c0-1.539.293-2.67.895-3.447.658-.849 1.653-1.262 3.069-1.262h.62c2.056 0 3.643.474 4.66.81.157.052.302.025.401-.056a.5.5 0 00.164-.396V1.563c0-.285-.135-.446-.548-.659C56.342.633 54.847 0 52.264 0h-.84zM.675.283C.528.283.413.34.347.453a.46.46 0 000 .432L5.57 10.7a.066.066 0 010 .037L.054 21.04a.459.459 0 000 .434c.066.11.181.17.33.17h3.561c.408 0 .553-.237.713-.566l3.653-6.931c.004-.008.01-.02.019-.02.008 0 .014.012.018.02l3.672 6.931c.158.329.286.565.694.565h3.58c.148 0 .263-.059.33-.17a.404.404 0 00.054-.207.527.527 0 00-.055-.226l-5.535-10.303c-.002-.003 0-.015 0-.019 0-.003-.002-.015 0-.018L16.331.885a.527.527 0 00.055-.226.41.41 0 00-.055-.207c-.067-.11-.182-.17-.329-.17h-3.58c-.408 0-.554.237-.713.566L8.348 7.289c-.004.007-.01.02-.018.02-.008 0-.015-.013-.019-.02L4.95.848C4.817.572 4.677.283 4.238.283H.675zm18.597 0c-.309 0-.53.227-.53.546v20.267c0 .319.221.546.53.546h2.832c.309 0 .53-.227.53-.546V.829c0-.319-.221-.546-.53-.546h-2.832zm7.563 0a.533.533 0 00-.548.546v20.267c0 .319.239.546.548.546h2.832c.309 0 .53-.227.53-.546V8.872c0-.011.008-.017.018-.02.009-.002.013.01.018.02l6.138 12.205c.126.26.323.565.712.565h2.96c.309 0 .53-.227.53-.546V.829c0-.319-.221-.546-.53-.546H37.21c-.309 0-.53.227-.53.546v12.205c0 .01-.008.017-.018.02-.01.002-.031.008-.036 0L30.489.847c-.135-.275-.274-.565-.713-.565h-2.941z" fill="white" fill-rule="nonzero"/></svg>